<?xml version="1.0" encoding="UTF-8" standalone="no"?><!DOCTYPE svg PUBLIC "-//W3C//DTD SVG 1.1//EN" "http://www.w3.org/Graphics/SVG/1.1/DTD/svg11.dtd"><svg width="100%" height="100%" viewBox="0 0 957 760" version="1.1" xmlns="http://www.w3.org/2000/svg" xmlns:xlink="http://www.w3.org/1999/xlink" xml:space="preserve" xmlns:serif="http://www.serif.com/" style="fill-rule:evenodd;clip-rule:evenodd;stroke-linecap:round;stroke-miterlimit:10;"><path d="M163.358,284.893l26.331,0.906l-5.613,163.104l-26.331,-0.906l5.613,-163.104Z" style="fill:#f7f7f7;fill-opacity:0;fill-rule:nonzero;stroke:#fff;stroke-width:1px;"/><path d="M845.956,118.947l-32.26,-19.533l58.518,-96.65l32.261,19.532l-58.519,96.651Z" style="fill:#f7f7f7;fill-opacity:0;fill-rule:nonzero;stroke:#fff;stroke-width:1px;"/><path d="M350.011,125.884l-26.266,2.071l-6.564,-83.261l26.266,-2.071l6.564,83.261Z" style="fill:#f7f7f7;fill-opacity:0;fill-rule:nonzero;stroke:#fff;stroke-width:1px;"/><path d="M374.479,493.146l-4.075,34.773l-269.742,-31.612l4.075,-34.773l269.742,31.612Z" style="fill:#f7f7f7;fill-opacity:0;fill-rule:nonzero;stroke:#fff;stroke-width:1px;"/><path d="M862.956,478.299l-29.394,27.004l-35.907,-39.086l29.394,-27.003l35.907,39.085Z" style="fill:#f7f7f7;fill-opacity:0;fill-rule:nonzero;stroke:#fff;stroke-width:1px;"/><path d="M898.99,38.416l9.598,18.586l-413.566,213.554l-9.597,-18.586l413.565,-213.554Z" style="fill:#f7f7f7;fill-opacity:0;fill-rule:nonzero;stroke:#fff;stroke-width:1px;"/><path d="M384.139,33.994l12.371,-9.302l248.973,331.121l-12.371,9.302l-248.973,-331.121Z" style="fill:#f7f7f7;fill-opacity:0;fill-rule:nonzero;stroke:#fff;stroke-width:1px;"/><path d="M279.374,357.854l26.332,0.906l-5.613,163.105l-26.332,-0.906l5.613,-163.105Z" style="fill:#f7f7f7;fill-opacity:0;fill-rule:nonzero;stroke:#fff;stroke-width:1px;"/><path d="M671.639,683.515l-26.126,3.414l-28.651,-219.271l26.125,-3.414l28.652,219.271Z" style="fill:#f7f7f7;fill-opacity:0;fill-rule:nonzero;stroke:#fff;stroke-width:1px;"/><path d="M821.59,277.625l29.151,19.391l-180.467,271.297l-29.151,-19.391l121.185,-182.177l59.282,-89.12Z" style="fill:#f7f7f7;fill-opacity:0;fill-rule:nonzero;stroke:#fff;stroke-width:1px;"/><path d="M673.566,679.862l0.106,-35.011l271.588,0.824l-0.107,35.011l-271.587,-0.824Z" style="fill:#f7f7f7;fill-opacity:0;fill-rule:nonzero;stroke:#fff;stroke-width:1px;"/><path d="M872.496,537.532l-29.393,27.004l-35.907,-39.086l29.393,-27.003l35.907,39.085Z" style="fill:#f7f7f7;fill-opacity:0;fill-rule:nonzero;stroke:#fff;stroke-width:1px;"/><path d="M447.398,652.788l-2.778,-15.227l344.608,-62.879l2.779,15.226l-344.609,62.88Z" style="fill:#f7f7f7;fill-opacity:0;fill-rule:nonzero;stroke:#fff;stroke-width:1px;"/></svg>